<mxfile host="drawio-plugin" modified="2022-06-25T19:12:56.250Z" agent="5.0 (X11; Linux x86_64) AppleWebKit/537.36 (KHTML, like Gecko) Chrome/97.0.4692.45 Safari/537.36" version="15.5.4" etag="bBViAagCv8E6omwsG4Xe" type="embed"><diagram id="eCJI03zcXoJ8_e5Oo7Gx" name="Page-1"><mxGraphModel dx="1771" dy="653" grid="1" gridSize="10" guides="1" tooltips="1" connect="1" arrows="1" fold="1" page="1" pageScale="1" pageWidth="850" pageHeight="1100" math="0" shadow="0"><root><mxCell id="0"/><mxCell id="1" parent="0"/><mxCell id="3" value="" style="sketch=0;outlineConnect=0;fontColor=#000000;fillColor=#f0a30a;strokeColor=#BD7000;dashed=0;verticalLabelPosition=bottom;verticalAlign=top;align=center;html=1;fontSize=12;fontStyle=0;aspect=fixed;pointerEvents=1;shape=mxgraph.aws4.bank;" vertex="1" parent="1"><mxGeometry x="310" y="180" width="210" height="210" as="geometry"/></mxCell><mxCell id="5" value="" style="sketch=0;outlineConnect=0;dashed=0;verticalLabelPosition=bottom;verticalAlign=top;align=center;html=1;fontSize=12;fontStyle=0;aspect=fixed;pointerEvents=1;shape=mxgraph.aws4.waf_bot_control;fillColor=#FFFFFF;strokeColor=#9673a6;" vertex="1" parent="1"><mxGeometry x="450" y="210" width="40" height="40" as="geometry"/></mxCell></root></mxGraphModel></diagram></mxfile>